<?xml version="1.0" standalone="no"?>
<!DOCTYPE svg PUBLIC "-//W3C//DTD SVG 20010904//EN"
 "http://www.w3.org/TR/2001/REC-SVG-20010904/DTD/svg10.dtd">
<svg version="1.0" xmlns="http://www.w3.org/2000/svg"
 width="4216.000000pt" height="4216.000000pt" viewBox="0 0 4216.000000 4216.000000"
 preserveAspectRatio="xMidYMid meet">
<metadata>
Created by potrace 1.14, written by Peter Selinger 2001-2017
</metadata>
<g transform="translate(0.000000,4216.000000) scale(0.100000,-0.100000)"
fill="#000000" stroke="none">
<path d="M20335 41871 c-22 -5 -146 -11 -275 -15 -313 -9 -444 -18 -900 -60
-467 -44 -575 -56 -935 -107 -1695 -241 -3321 -669 -4830 -1271 -2013 -804
-3918 -1941 -5590 -3337 -961 -801 -1892 -1732 -2686 -2681 -1197 -1432 -2261
-3117 -2981 -4725 -998 -2227 -1590 -4506 -1778 -6840 -11 -143 -27 -343 -36
-445 -35 -424 -47 -1314 -26 -1976 51 -1663 269 -3129 711 -4780 567 -2117
1570 -4295 2849 -6183 1399 -2067 3130 -3841 5162 -5291 1919 -1369 4118
-2429 6383 -3076 1174 -335 2627 -604 3827 -709 575 -50 963 -65 1771 -71 615
-5 721 -3 1021 15 185 12 374 21 422 21 177 0 1049 92 1563 165 1238 176 2335
430 3483 807 2214 727 4216 1772 6071 3169 720 543 1385 1112 2060 1765 259
250 1098 1160 1372 1487 1537 1833 2754 3918 3576 6126 524 1406 905 2916
1095 4341 43 319 146 1297 146 1383 0 45 7 150 15 232 19 179 39 849 39 1275
0 421 -20 1090 -39 1300 -106 1167 -163 1664 -256 2215 -473 2815 -1602 5634
-3224 8055 -408 609 -899 1261 -1329 1765 -132 156 -1160 1277 -1252 1366
-846 821 -1516 1402 -2269 1964 -1464 1094 -3047 1980 -4750 2660 -1532 611
-3053 1017 -4728 1260 -216 32 -1236 140 -1517 161 -118 9 -341 20 -495 26
-361 12 -1618 19 -1670 9z m1860 -690 c1216 -60 2687 -289 3900 -607 1305
-342 2384 -735 3593 -1308 3056 -1449 5694 -3648 7698 -6416 1610 -2224 2753
-4770 3338 -7440 231 -1054 339 -1829 437 -3135 17 -230 34 -820 34 -1185 0
-330 -18 -1010 -30 -1125 -2 -27 -9 -111 -15 -185 -23 -293 -172 -1638 -205
-1850 -137 -876 -343 -1777 -600 -2632 -825 -2739 -2249 -5299 -4159 -7478
-549 -626 -1221 -1298 -1846 -1846 -2174 -1904 -4722 -3320 -7487 -4158 -929
-282 -1946 -503 -2990 -650 -303 -43 -1707 -171 -2003 -182 -467 -18 -1872 -4
-1940 20 -8 3 -100 10 -205 16 -757 42 -1768 174 -2575 336 -971 194 -1899
451 -2784 771 -852 308 -1512 588 -2216 939 -1743 872 -3360 1991 -4769 3303
-203 188 -796 782 -987 987 -1155 1242 -2148 2612 -2941 4059 -132 240 -433
819 -505 970 -1138 2393 -1785 4875 -1943 7455 -48 792 -48 1717 0 2495 169
2699 852 5262 2041 7655 1262 2542 3013 4755 5199 6575 1941 1616 4174 2856
6570 3647 1060 350 2192 617 3325 784 332 49 1434 163 1690 175 118 5 251 14
295 18 116 12 1809 6 2080 -8z"/>
<path d="M21790 39597 c-338 -33 -617 -61 -619 -63 -32 -27 -22 -2924 13
-3514 11 -189 14 -395 5 -373 -4 13 -20 101 -34 195 -37 248 -421 2573 -509
3078 -41 234 -82 444 -91 468 -22 54 -42 64 -129 65 -69 0 -1206 -112 -1216
-120 -18 -16 -27 -2659 -10 -3001 9 -186 18 -684 12 -678 -9 10 -82 434 -332
1940 -153 923 -280 1679 -282 1681 -2 1 -271 -24 -598 -56 -327 -32 -608 -59
-624 -59 l-29 0 7 -52 c4 -29 67 -357 141 -728 420 -2116 802 -4048 860 -4345
113 -583 118 -599 179 -611 19 -3 39 -3 44 0 5 3 65 10 133 16 157 13 1317
130 1345 135 20 4 22 13 28 132 7 131 20 664 36 1538 5 270 12 653 16 853 4
199 8 361 11 359 2 -3 75 -332 163 -733 179 -823 245 -1114 331 -1459 73 -293
159 -607 169 -619 5 -4 214 12 467 38 252 25 602 59 778 76 176 17 330 33 343
36 l22 4 0 2930 c0 1612 -3 2929 -7 2929 -5 -1 -285 -28 -623 -62z"/>
<path d="M26320 38794 c-184 -27 -329 -70 -464 -139 -315 -161 -528 -425 -711
-883 -133 -336 -819 -2464 -928 -2882 -72 -274 -97 -443 -97 -655 0 -289 64
-509 214 -734 73 -110 220 -258 336 -340 218 -153 508 -262 820 -307 313 -45
694 48 958 235 140 100 285 262 384 431 80 135 358 893 559 1523 592 1848 632
1999 632 2327 -1 395 -127 717 -377 966 -247 246 -606 407 -1011 454 -85 9
-260 12 -315 4z m411 -1060 c38 -19 68 -83 69 -142 0 -122 -26 -212 -518
-1747 -187 -583 -370 -1156 -407 -1273 -116 -373 -201 -576 -266 -640 -83 -81
-205 -60 -245 43 -24 65 -14 187 30 345 45 163 839 2649 951 2980 48 140 100
279 115 310 27 53 74 106 115 128 30 17 122 14 156 -4z"/>
<path d="M14440 38175 c-206 -101 -442 -221 -525 -267 l-150 -84 -3 -71 c-2
-60 22 -194 148 -820 83 -411 175 -862 206 -1001 31 -140 54 -256 51 -258 -5
-6 -150 279 -202 396 -20 47 -115 245 -210 440 -95 195 -250 515 -345 710 -95
195 -173 356 -174 357 -5 6 -1152 -528 -1168 -545 -8 -9 176 -404 672 -1437
221 -462 626 -1310 900 -1885 663 -1393 922 -1930 933 -1930 5 0 197 88 426
196 395 186 711 354 711 378 -1 6 -9 45 -19 86 -13 52 -68 175 -176 395 -173
351 -747 1566 -743 1571 2 1 293 -379 648 -844 602 -791 756 -981 796 -982 30
0 1150 513 1178 540 18 18 -101 178 -354 475 -203 238 -1133 1359 -1445 1742
l-272 333 -66 332 c-73 362 -273 1489 -337 1889 -41 261 -71 403 -92 443 l-13
24 -375 -183z"/>
<path d="M30784 36950 c-32 -13 -68 -62 -339 -467 -441 -659 -1906 -2836
-2369 -3522 -247 -365 -467 -698 -489 -739 -33 -62 -37 -76 -26 -87 28 -26
891 -576 899 -573 11 4 845 1243 1157 1719 119 182 219 326 221 320 5 -15 -42
-164 -110 -346 -53 -143 -385 -1065 -627 -1745 -50 -140 -91 -268 -91 -285 0
-34 24 -74 60 -103 14 -11 156 -106 315 -212 160 -106 319 -214 355 -240 80
-58 141 -90 174 -90 41 0 90 53 193 209 299 452 2145 3195 2775 4123 209 308
268 407 268 447 0 31 -60 92 -158 159 -48 32 -159 109 -246 171 -255 179 -442
288 -480 279 -15 -3 -798 -1165 -1168 -1733 -104 -159 -193 -294 -198 -299
-18 -18 22 124 91 324 39 113 208 615 375 1115 337 1008 330 984 272 1044 -38
39 -698 485 -767 518 -50 25 -56 26 -87 13z"/>
<path d="M9913 35594 c-44 -22 -163 -120 -654 -540 -239 -203 -524 -446 -634
-538 -239 -200 -255 -217 -255 -269 0 -44 22 -79 127 -203 305 -363 2290
-2701 3166 -3731 230 -271 423 -493 429 -493 13 0 262 205 758 625 234 197
543 457 688 577 l262 218 -25 50 c-14 27 -58 89 -99 137 -445 529 -542 642
-577 668 -61 45 -93 40 -181 -28 -40 -31 -122 -100 -183 -153 -239 -210 -399
-334 -430 -334 -7 0 -28 24 -48 54 -49 74 -196 252 -421 509 -211 242 -276
327 -276 362 0 36 33 69 306 301 170 144 252 220 246 228 -60 78 -568 695
-606 734 -106 111 -140 109 -279 -12 -251 -218 -401 -336 -426 -336 -36 0 -87
40 -153 120 -29 35 -124 147 -210 248 -169 197 -269 322 -311 389 l-26 42 67
47 c96 67 227 174 411 335 141 123 160 143 149 158 -64 83 -603 728 -642 769
-78 82 -113 95 -173 66z"/>
<path d="M35237 33273 c-61 -41 -82 -57 -1557 -1188 -553 -424 -1442 -1105
-1977 -1514 l-972 -744 25 -48 c25 -49 67 -108 330 -449 82 -107 251 -328 374
-490 291 -385 400 -518 540 -664 185 -192 339 -292 520 -337 70 -18 103 -21
190 -16 224 11 437 103 752 324 240 169 2441 1856 2663 2042 424 355 579 636
562 1021 -10 213 -72 387 -231 644 -130 209 -992 1375 -1058 1431 -44 37 -92
34 -161 -12z m129 -1628 c84 -64 111 -213 55 -310 -58 -101 -100 -136 -1209
-984 -1341 -1026 -1491 -1131 -1617 -1131 -123 0 -265 109 -236 182 14 36 66
80 326 279 1759 1343 2341 1790 2443 1872 76 61 166 116 191 117 8 0 29 -11
47 -25z"/>
<path d="M5798 31220 c-553 -825 -528 -786 -528 -830 0 -55 38 -100 198 -232
163 -136 691 -582 2796 -2363 780 -660 1421 -1201 1425 -1202 14 -4 298 389
528 729 l244 362 -43 44 c-63 64 -225 197 -464 380 -196 150 -284 228 -284
252 0 16 201 350 209 346 3 -2 116 -68 251 -147 135 -79 339 -194 454 -255
l209 -113 241 357 c270 401 493 755 478 760 -26 8 -3636 1814 -4102 2052 -446
227 -1056 522 -1130 545 -15 5 -92 -104 -482 -685z m2022 -1302 c426 -239 861
-481 967 -537 l192 -102 -16 -37 c-43 -104 -149 -256 -197 -281 -24 -13 -31
-13 -69 6 -52 26 -278 207 -877 703 -256 212 -512 424 -570 471 -97 80 -220
199 -220 214 0 3 3 4 8 2 4 -3 356 -200 782 -439z"/>
<path d="M20605 31799 c-282 -27 -769 -82 -915 -105 -751 -116 -1440 -292
-2120 -540 -1351 -492 -2554 -1212 -3640 -2178 -184 -163 -707 -687 -870 -871
-1502 -1693 -2398 -3597 -2739 -5820 -66 -425 -88 -646 -111 -1096 -13 -256
-13 -832 0 -1074 14 -252 113 -1144 151 -1365 338 -1953 1168 -3746 2438
-5265 225 -269 770 -846 982 -1039 825 -754 1645 -1319 2609 -1799 1063 -530
2148 -875 3285 -1046 434 -65 1287 -134 1670 -135 405 -1 980 39 1450 99 1518
194 2889 660 4205 1428 1344 784 2553 1888 3470 3167 633 882 1135 1857 1477
2865 296 876 508 1887 563 2695 60 888 49 1437 -46 2250 -122 1049 -398 2089
-807 3040 -1322 3079 -3900 5388 -7079 6340 -784 235 -1723 408 -2393 442
-275 14 -1451 19 -1580 7z m1850 -717 c649 -69 1085 -146 1615 -287 1296 -344
2579 -976 3680 -1811 408 -309 638 -511 1025 -899 410 -410 659 -696 1000
-1150 1017 -1356 1669 -2879 1950 -4555 58 -344 95 -668 127 -1095 17 -225 17
-1093 0 -1320 -93 -1263 -345 -2323 -813 -3416 -1053 -2462 -2986 -4425 -5419
-5504 -794 -352 -1633 -609 -2415 -739 -176 -30 -1140 -137 -1313 -146 -520
-28 -1011 -12 -1637 54 -676 72 -1197 170 -1780 337 -841 241 -1728 628 -2498
1090 -1054 633 -2039 1491 -2793 2434 -1058 1323 -1802 2925 -2118 4561 -133
689 -180 1203 -181 1994 0 924 66 1560 247 2345 572 2493 2038 4700 4113 6190
931 669 2019 1209 3083 1531 594 180 1164 296 1823 374 506 59 477 58 1219 56
l685 -2 400 -42z"/>
<path d="M22645 27980 c-499 -41 -986 -186 -1300 -387 -48 -31 -161 -136 -360
-332 -318 -315 -390 -372 -595 -470 -213 -101 -369 -140 -593 -148 -262 -9
-476 26 -1022 167 -411 107 -654 164 -800 190 -165 28 -370 50 -473 50 -111 0
-323 -31 -477 -70 -387 -96 -836 -354 -1096 -628 -86 -90 -116 -132 -254 -351
-160 -254 -326 -379 -600 -451 -219 -57 -367 -62 -680 -24 -233 28 -269 27
-481 -12 -317 -58 -605 -172 -785 -310 -87 -67 -160 -152 -215 -255 -129 -236
-527 -1036 -569 -1142 -100 -252 -137 -490 -116 -744 19 -220 47 -331 173
-668 33 -88 129 -395 213 -681 137 -465 164 -573 255 -988 55 -257 112 -535
126 -619 31 -187 50 -265 109 -437 114 -331 350 -868 733 -1666 115 -239 400
-862 508 -1108 21 -49 51 -106 65 -126 52 -71 374 -312 743 -555 625 -412
1015 -586 1436 -641 183 -23 283 -9 415 59 198 102 414 401 527 727 31 90 32
103 32 230 -1 149 -12 213 -70 392 -99 309 -257 654 -720 1580 -152 304 -364
734 -470 956 l-194 404 -21 166 c-11 92 -52 363 -89 602 -62 391 -80 481 -180
895 -61 253 -126 508 -145 567 -38 118 -44 187 -19 213 38 38 78 50 169 50 78
0 94 -3 122 -23 38 -27 35 -17 114 -372 33 -151 96 -430 139 -620 132 -575
147 -667 159 -945 15 -320 28 -359 501 -1436 161 -365 442 -999 625 -1409 307
-688 446 -1011 530 -1231 19 -48 45 -109 59 -137 78 -154 399 -369 686 -460
155 -49 218 -57 425 -57 158 0 209 4 305 23 372 75 717 251 1123 572 l158 125
-6 45 c-16 115 -77 327 -200 695 -74 220 -148 453 -165 518 -30 118 -30 119
-30 397 l0 279 -105 723 c-124 852 -160 1190 -145 1382 13 164 12 594 -1 714
-16 149 -53 320 -135 632 -104 390 -110 415 -139 553 -30 142 -76 575 -65 621
23 104 125 185 234 186 41 0 53 -5 82 -34 31 -31 34 -39 34 -93 0 -32 -7 -115
-16 -183 -18 -146 -14 -281 16 -456 38 -224 59 -293 216 -716 153 -413 201
-581 223 -787 10 -88 8 -109 -34 -360 -46 -283 -47 -263 44 -936 94 -699 97
-724 111 -1040 16 -358 79 -1265 100 -1445 28 -234 71 -403 124 -495 66 -112
267 -348 415 -486 443 -416 987 -685 1511 -749 129 -15 490 -12 627 5 428 56
863 262 1080 513 178 205 244 349 292 637 93 553 166 868 293 1270 72 231 89
299 127 530 54 325 96 640 137 1025 20 191 27 318 31 577 7 419 2 463 -82 734
-103 335 -149 610 -149 904 1 196 10 290 55 555 49 289 173 759 231 875 29 57
66 94 104 101 41 8 116 -25 140 -61 15 -23 16 -33 6 -77 -7 -27 -28 -86 -47
-130 -96 -218 -168 -544 -194 -883 -18 -226 47 -802 165 -1475 l86 -485 -5
-235 c-5 -257 -25 -418 -93 -765 -61 -308 -87 -405 -330 -1198 -130 -425 -256
-851 -282 -947 -43 -166 -46 -182 -46 -315 -1 -135 0 -142 28 -200 39 -79 139
-176 247 -240 46 -27 257 -131 469 -231 212 -99 480 -226 596 -282 268 -128
413 -176 619 -203 227 -30 451 26 948 238 505 214 741 357 953 575 224 230
290 397 425 1067 54 272 256 1087 300 1210 31 91 71 119 140 101 22 -6 46 -21
55 -35 14 -22 14 -29 1 -72 -259 -853 -323 -1119 -347 -1467 -18 -250 -42
-350 -109 -453 -51 -77 -305 -366 -417 -473 -301 -289 -777 -568 -1334 -782
-219 -84 -276 -98 -415 -105 -242 -11 -536 62 -966 243 -289 121 -554 257
-1060 545 -163 93 -301 169 -306 169 -4 0 -26 -39 -47 -87 -65 -148 -120 -229
-245 -354 -257 -257 -580 -405 -1041 -476 -175 -27 -565 -24 -759 6 -415 64
-838 223 -1172 442 -144 94 -251 181 -396 321 -72 70 -147 137 -165 148 -45
27 -88 25 -151 -6 -91 -46 -597 -388 -717 -484 -313 -252 -514 -480 -644 -730
-105 -205 -136 -340 -136 -599 0 -257 34 -427 141 -701 60 -155 183 -407 245
-503 147 -226 427 -420 859 -595 188 -76 266 -92 438 -92 260 0 495 60 1022
262 143 55 354 135 468 179 236 90 347 123 497 144 285 39 776 44 1060 10 484
-58 1057 -179 1676 -354 322 -91 401 -105 558 -98 450 19 958 247 1314 591
124 120 252 279 452 566 332 477 621 841 979 1234 148 163 295 302 676 637
293 258 436 396 506 489 54 73 141 253 174 362 59 198 85 406 87 708 l1 195
-81 525 c-148 956 -193 1322 -253 2050 -35 435 -46 711 -38 1015 14 524 51
842 159 1340 112 518 130 638 130 863 0 790 -256 1500 -776 2152 -121 152
-376 412 -504 514 -198 158 -449 305 -650 379 -218 81 -369 112 -614 127 -288
17 -458 -8 -760 -114 -192 -68 -253 -84 -360 -97 -257 -30 -634 89 -961 302
-222 145 -398 282 -830 650 -348 296 -480 402 -625 504 -231 162 -523 279
-847 340 -235 44 -607 64 -838 45z m308 -13710 c80 -12 135 -37 170 -80 52
-61 56 -134 22 -340 -8 -47 -23 -161 -35 -254 -25 -205 -36 -253 -64 -271 -11
-8 -129 -37 -261 -65 -257 -54 -233 -46 -735 -250 -332 -135 -532 -185 -780
-197 -248 -11 -732 58 -890 128 -95 42 -164 142 -164 239 0 73 87 338 158 485
116 236 289 409 489 485 159 62 440 109 652 111 55 0 118 4 140 8 58 12 1216
13 1298 1z"/>
<path d="M37651 28189 c-287 -21 -489 -86 -2038 -660 -911 -337 -1135 -423
-1332 -513 -437 -198 -681 -413 -841 -739 -104 -211 -141 -423 -120 -676 50
-607 347 -1094 804 -1316 365 -178 730 -176 1334 6 191 58 361 119 1407 512
1440 540 1576 598 1794 762 240 181 426 431 504 680 42 136 50 212 44 457 -4
192 -8 237 -30 328 -77 321 -235 602 -457 813 -222 212 -456 318 -765 347
-121 11 -137 11 -304 -1z m437 -1233 c47 -24 74 -62 79 -109 15 -127 -61 -189
-377 -310 -371 -142 -2801 -1040 -2925 -1080 -149 -49 -294 -87 -335 -87 -79
0 -152 48 -171 110 -26 88 26 167 152 231 166 83 1827 705 2819 1055 553 195
578 202 653 203 49 1 88 -4 105 -13z"/>
<path d="M3967 27908 c-28 -76 -887 -2599 -887 -2607 0 -9 434 -164 833 -297
274 -91 278 -92 286 -71 5 12 52 150 106 306 54 156 108 297 120 315 36 54 74
49 324 -38 119 -41 1015 -350 1991 -685 976 -336 1827 -628 1890 -651 63 -22
128 -40 143 -40 38 0 68 33 100 110 66 160 341 969 345 1016 4 46 1 55 -24 82
-31 33 -38 36 -979 357 -198 68 -801 276 -1340 463 -539 187 -1212 420 -1495
517 -283 98 -516 179 -518 180 -1 1 7 24 19 51 45 104 199 578 199 615 0 42
-23 65 -96 93 -29 12 -825 271 -980 320 -18 5 -24 0 -37 -36z"/>
<path d="M9033 15202 c-265 -153 -484 -280 -488 -283 -3 -4 73 -151 170 -327
96 -177 175 -326 175 -331 0 -5 -73 -48 -162 -96 -90 -48 -732 -419 -1428
-825 -696 -405 -1494 -869 -1773 -1030 l-508 -292 6 -32 c10 -50 59 -149 138
-280 41 -66 134 -224 207 -351 73 -126 150 -260 171 -296 41 -72 99 -129 129
-129 31 0 98 33 240 117 74 44 266 156 425 248 305 177 2670 1557 2956 1725
150 89 249 140 269 140 4 0 83 -139 176 -309 l169 -310 170 88 c144 75 506
276 757 423 l68 39 -91 182 c-102 203 -1268 2208 -1284 2206 -5 0 -227 -125
-492 -277z"/>
<path d="M32150 14553 c-102 -147 -250 -359 -329 -472 -136 -196 -191 -287
-191 -321 0 -46 69 -113 405 -389 401 -329 1758 -1427 2100 -1700 233 -186
284 -229 235 -199 -302 183 -1720 1000 -2411 1388 -352 199 -718 386 -729 373
-4 -4 -114 -165 -245 -358 -131 -192 -275 -402 -320 -465 -84 -117 -140 -217
-146 -259 -5 -28 -225 88 1796 -951 468 -241 1075 -556 1350 -700 275 -144
736 -384 1025 -532 289 -149 557 -289 595 -311 99 -58 214 -107 253 -107 24 0
43 10 72 38 30 29 542 759 948 1352 25 36 56 89 70 119 l24 53 -23 23 c-13 12
-256 222 -539 466 -696 599 -2854 2480 -3444 3002 -109 96 -276 217 -299 217
-7 0 -95 -120 -197 -267z"/>
<path d="M36714 13680 c-38 -15 -71 -70 -192 -321 -124 -255 -190 -408 -199
-462 l-5 -32 324 -154 c293 -141 450 -212 654 -299 l71 -30 193 405 c106 223
188 408 184 413 -22 19 -953 480 -979 484 -16 3 -40 1 -51 -4z"/>
<path d="M11440 12404 c-43 -18 -102 -63 -300 -224 -164 -134 -3079 -2481
-3705 -2984 -203 -163 -371 -300 -373 -305 -9 -27 122 -171 491 -540 l414
-413 292 248 c451 385 452 386 481 379 87 -21 260 -196 260 -264 0 -33 -41
-84 -365 -456 -137 -157 -251 -290 -253 -294 -3 -8 891 -904 906 -908 10 -3
365 436 591 732 102 132 647 841 1211 1575 565 734 1176 1530 1359 1768 l332
433 -26 37 c-38 53 -1180 1189 -1218 1213 -38 23 -51 23 -97 3z m-343 -1736
c-31 -40 -100 -122 -153 -183 -107 -123 -768 -904 -968 -1145 -174 -209 -204
-240 -236 -240 -15 0 -48 14 -74 32 -48 31 -155 149 -189 206 l-17 31 217 183
c495 419 1461 1201 1472 1192 2 -2 -21 -36 -52 -76z"/>
<path d="M13691 10332 c-25 -26 -66 -84 -90 -127 -74 -134 -2175 -3757 -2483
-4283 -140 -238 -227 -406 -216 -417 4 -4 1080 -634 1483 -868 351 -204 370
-211 423 -157 18 17 49 62 70 98 21 37 105 182 187 322 81 140 168 289 191
330 39 67 92 197 83 204 -2 2 -178 101 -391 220 l-386 217 60 102 c33 56 137
233 230 392 253 432 260 443 291 481 22 26 36 34 61 34 37 0 24 7 375 -189
150 -84 275 -151 276 -149 11 10 547 950 544 952 -2 2 -150 83 -329 181 -179
97 -327 179 -329 181 -8 7 117 244 258 484 195 335 237 399 266 406 29 7 61
-9 310 -159 184 -111 332 -186 395 -201 25 -5 36 13 299 490 150 272 271 497
269 499 -8 8 -1695 981 -1721 993 -52 23 -77 15 -126 -36z"/>
<path d="M29950 10200 c-177 -19 -309 -59 -482 -147 -261 -133 -512 -366 -658
-612 -216 -364 -209 -736 24 -1200 128 -256 184 -335 991 -1416 430 -576 570
-731 790 -875 397 -258 812 -275 1270 -51 203 100 372 224 526 389 151 162
235 314 282 516 31 133 30 436 -1 583 -44 202 -98 325 -244 553 -93 144 -371
515 -393 524 -28 10 -75 7 -104 -9 -16 -8 -127 -88 -247 -177 -120 -90 -286
-213 -367 -272 -165 -121 -197 -154 -197 -197 0 -44 20 -76 160 -264 341 -457
425 -603 400 -697 -13 -44 -60 -102 -103 -124 -42 -22 -86 -11 -154 41 -79 59
-116 106 -406 505 -138 190 -285 393 -328 451 l-78 107 516 373 c537 390 632
462 659 505 21 32 20 73 -2 116 -27 51 -552 732 -643 833 -261 290 -554 477
-827 529 -104 19 -278 27 -384 16z m-36 -958 c91 -45 341 -345 453 -540 23
-42 43 -80 43 -83 0 -4 -21 -20 -47 -37 -27 -16 -87 -54 -134 -85 l-87 -56
-188 262 c-216 301 -248 356 -248 428 0 111 102 166 208 111z"/>
<path d="M33683 9146 c-4 -8 -130 -141 -280 -295 -191 -197 -275 -292 -283
-317 -20 -59 20 -124 148 -241 59 -54 225 -214 370 -358 l262 -260 235 235
c130 129 271 281 315 337 l80 103 -96 107 c-87 98 -720 702 -736 703 -4 0 -11
-6 -15 -14z"/>
<path d="M25446 8867 l-558 -151 6 -241 c9 -332 22 -731 34 -1115 15 -442 22
-773 16 -767 -7 6 -84 268 -264 897 -200 696 -313 1065 -326 1065 -23 0 -1204
-340 -1204 -347 0 -11 1141 -3996 1515 -5291 23 -81 45 -150 48 -153 3 -3 277
72 610 166 l605 172 -13 47 c-41 138 -481 1705 -525 1866 -28 105 -53 197 -56
205 -3 10 -2 12 5 5 10 -11 461 -858 824 -1550 121 -231 223 -424 227 -428 6
-6 1246 345 1257 356 8 8 -1185 2082 -1487 2584 -115 191 -104 70 -112 1168
-9 1255 -17 1665 -32 1664 -6 -1 -262 -69 -570 -152z"/>
<path d="M17050 8829 c-233 -30 -489 -131 -665 -262 -241 -179 -372 -398 -547
-917 -73 -216 -149 -471 -461 -1555 -325 -1127 -343 -1193 -384 -1440 -24
-149 -24 -442 0 -572 78 -416 352 -765 717 -914 112 -45 212 -64 340 -62 200
2 343 54 526 194 l104 79 0 -190 c0 -105 2 -190 5 -190 2 0 136 -37 297 -81
161 -45 321 -89 356 -97 71 -18 105 -11 133 28 21 29 105 314 775 2638 50 174
52 194 24 222 -32 32 -72 45 -610 200 -283 81 -528 153 -545 160 -47 18 -164
38 -188 32 -57 -13 -64 -31 -176 -432 -50 -179 -95 -339 -100 -357 l-9 -31
111 -27 c62 -15 115 -30 119 -34 8 -7 -183 -675 -242 -845 -46 -132 -77 -200
-124 -264 -114 -160 -317 -98 -316 95 1 72 11 117 94 428 95 352 625 2176 763
2625 118 387 146 454 208 509 41 36 73 46 122 38 52 -9 82 -33 105 -85 34 -76
22 -160 -75 -522 -47 -173 -99 -362 -116 -419 -17 -57 -31 -125 -31 -151 0
-79 -32 -66 695 -270 324 -91 501 -136 506 -129 3 6 12 36 19 67 6 31 38 154
70 272 117 436 160 689 160 945 0 217 -84 473 -220 670 -241 347 -683 586
-1195 645 -102 11 -152 11 -245 -1z"/>
<path d="M19706 7988 c-13 -419 -28 -2046 -30 -3213 l-1 -1270 23 -102 c27
-122 72 -253 119 -348 140 -279 420 -508 756 -620 190 -63 243 -70 537 -70
284 0 371 9 518 51 293 85 557 298 701 564 76 143 129 303 166 505 23 125 35
523 46 1560 21 2014 29 2603 35 2832 l6 241 -234 6 c-128 3 -414 9 -635 12
l-402 6 -5 -578 c-36 -3460 -42 -3836 -60 -3954 -26 -169 -51 -221 -122 -255
-75 -35 -148 14 -181 123 -16 52 -18 111 -17 672 1 338 7 1025 13 1525 7 501
14 1259 17 1686 l5 777 -293 6 c-161 3 -442 9 -625 12 l-332 6 -5 -174z"/>
</g>
</svg>
